<?xml version="1.0" encoding="UTF-8"?>
<!-- Generator: Adobe Illustrator 15.1.0, SVG Export Plug-In . SVG Version: 6.00 Build 0)  -->
<!DOCTYPE svg PUBLIC "-//W3C//DTD SVG 1.1//EN" "http://www.w3.org/Graphics/SVG/1.1/DTD/svg11.dtd">
<svg version="1.1" id="Layer_1" xmlns="http://www.w3.org/2000/svg" xmlns:xlink="http://www.w3.org/1999/xlink" x="0px" y="0px" width="72px" height="72px" viewBox="0 0 72 72" enable-background="new 0 0 72 72" xml:space="preserve">
<g>
	
		<radialGradient id="SVGID_1_" cx="179.2803" cy="-19.8662" r="24.9858" gradientTransform="matrix(0.2214 1.0404 -1.0609 0.0977 -24.769 -148.584)" gradientUnits="userSpaceOnUse">
		<stop offset="0" style="stop-color:#FFFFFF;stop-opacity:0"/>
		<stop offset="0.0852" style="stop-color:#FFFEF5;stop-opacity:0.0852"/>
		<stop offset="0.22" style="stop-color:#FFFCDD;stop-opacity:0.22"/>
		<stop offset="0.3875" style="stop-color:#FFF9B9;stop-opacity:0.3875"/>
		<stop offset="0.5812" style="stop-color:#FFF592;stop-opacity:0.5812"/>
		<stop offset="0.7939" style="stop-color:#FFF064;stop-opacity:0.7939"/>
		<stop offset="1" style="stop-color:#FEED27"/>
	</radialGradient>
	<path fill="url(#SVGID_1_)" stroke="#212120" stroke-miterlimit="10" d="M54.328,30.014c0,0,1.745-1.802,2.068-3.192   c0.326-1.389-0.182-2.885,0.105-4.277c0.283-1.394,1.376-2.44,1.376-2.44s-1.345,0.692-2.752,0.502   c-1.407-0.186-2.433-1.246-3.847-1.396c-1.416-0.149-3.969,1.175-3.969,1.175s0.352-2.483-0.204-3.799   c-0.552-1.314-1.843-2.227-2.429-3.521c-0.59-1.294-0.321-2.783-0.321-2.783s-0.681,1.351-1.931,2.023   c-1.248,0.678-2.701,0.422-3.934,1.131c-1.233,0.712-2.52,3.283-2.52,3.283s-1.176-2.215-2.398-2.952   c-1.219-0.739-2.801-0.719-4.035-1.422c-1.238-0.7-1.896-2.063-1.896-2.063s0.244,1.493-0.372,2.772   c-0.611,1.281-1.937,1.929-2.517,3.227c-0.58,1.301-0.109,4.138-0.109,4.138s-2.254-1.102-3.676-0.979   c-1.42,0.118-2.688,1.064-4.1,1.221c-1.414,0.162-2.748-0.554-2.748-0.554s1.076,1.063,1.329,2.461   c0.259,1.396-0.433,2.699-0.14,4.09c0.295,1.394,2.344,3.411,2.344,3.411s-2.471,0.436-3.55,1.369   c-1.078,0.932-1.549,2.44-2.599,3.399c-1.048,0.961-2.549,1.165-2.549,1.165s1.496,0.23,2.522,1.21   c1.028,0.979,1.236,2.439,2.292,3.393c1.058,0.951,3.9,1.381,3.9,1.381s-1.743,1.805-2.067,3.194   c-0.325,1.387,0.181,2.884-0.104,4.277c-0.283,1.393-1.377,2.44-1.377,2.44s1.346-0.693,2.752-0.504   c1.406,0.188,2.434,1.247,3.848,1.397c1.415,0.147,3.968-1.176,3.968-1.176s-0.351,2.484,0.204,3.8   c0.553,1.313,1.842,2.228,2.43,3.521c0.59,1.293,0.32,2.784,0.32,2.784s0.682-1.352,1.931-2.025   c1.248-0.675,2.702-0.421,3.935-1.131c1.232-0.712,2.52-3.283,2.52-3.283s1.176,2.216,2.397,2.954   c1.22,0.737,2.8,0.719,4.036,1.421c1.237,0.699,1.896,2.063,1.896,2.063s-0.243-1.494,0.372-2.773   c0.612-1.279,1.938-1.929,2.518-3.228c0.579-1.3,0.109-4.137,0.109-4.137s2.253,1.102,3.675,0.98   c1.421-0.12,2.688-1.063,4.101-1.223c1.412-0.162,2.746,0.556,2.746,0.556s-1.074-1.066-1.328-2.463   c-0.258-1.395,0.434-2.698,0.14-4.091c-0.296-1.393-2.344-3.411-2.344-3.411s2.471-0.433,3.55-1.367   c1.079-0.932,1.549-2.44,2.599-3.398c1.048-0.961,2.548-1.165,2.548-1.165s-1.495-0.231-2.521-1.212   c-1.029-0.977-1.235-2.438-2.291-3.392C57.172,30.443,54.328,30.014,54.328,30.014z"/>
	<radialGradient id="SVGID_2_" cx="36" cy="35.999" r="18.75" gradientUnits="userSpaceOnUse">
		<stop offset="0" style="stop-color:#FFFFFF;stop-opacity:0"/>
		<stop offset="0.0852" style="stop-color:#FFFEF5;stop-opacity:0.0852"/>
		<stop offset="0.22" style="stop-color:#FFFCDD;stop-opacity:0.22"/>
		<stop offset="0.3875" style="stop-color:#FFF9B9;stop-opacity:0.3875"/>
		<stop offset="0.5812" style="stop-color:#FFF592;stop-opacity:0.5812"/>
		<stop offset="0.7939" style="stop-color:#FFF064;stop-opacity:0.7939"/>
		<stop offset="1" style="stop-color:#FEED27"/>
	</radialGradient>
	<circle fill="url(#SVGID_2_)" stroke="#212120" stroke-miterlimit="10" cx="36" cy="35.999" r="18.75"/>
	<radialGradient id="SVGID_3_" cx="36.0854" cy="36.0195" r="15.2566" gradientUnits="userSpaceOnUse">
		<stop offset="0" style="stop-color:#FFFFFF;stop-opacity:0"/>
		<stop offset="1" style="stop-color:#FEED27"/>
	</radialGradient>
	<polygon fill="url(#SVGID_3_)" stroke="#212120" stroke-linejoin="bevel" stroke-miterlimit="10" points="35.896,54.895    19.588,26.644 52.208,26.645  "/>
</g>
</svg>