<?xml version="1.0" encoding="UTF-8"?>
<!-- Generator: Adobe Illustrator 15.1.0, SVG Export Plug-In . SVG Version: 6.00 Build 0)  -->
<!DOCTYPE svg PUBLIC "-//W3C//DTD SVG 1.1//EN" "http://www.w3.org/Graphics/SVG/1.1/DTD/svg11.dtd">
<svg version="1.1" id="Layer_1" xmlns="http://www.w3.org/2000/svg" xmlns:xlink="http://www.w3.org/1999/xlink" x="0px" y="0px" width="72px" height="72px" viewBox="0 0 72 72" enable-background="new 0 0 72 72" xml:space="preserve">
<g>
	<radialGradient id="SVGID_1_" cx="36" cy="36" r="22.208" gradientUnits="userSpaceOnUse">
		<stop offset="0" style="stop-color:#FFFFFF;stop-opacity:0"/>
		<stop offset="0.1242" style="stop-color:#FDF9F7;stop-opacity:0.1242"/>
		<stop offset="0.2495" style="stop-color:#F9EAE2;stop-opacity:0.2495"/>
		<stop offset="0.3755" style="stop-color:#F2D4C3;stop-opacity:0.3755"/>
		<stop offset="0.502" style="stop-color:#E8B8A0;stop-opacity:0.502"/>
		<stop offset="0.6289" style="stop-color:#DE9A80;stop-opacity:0.6289"/>
		<stop offset="0.7561" style="stop-color:#D37B5F;stop-opacity:0.7561"/>
		<stop offset="0.8811" style="stop-color:#C8583F;stop-opacity:0.8811"/>
		<stop offset="1" style="stop-color:#BF2A1D"/>
	</radialGradient>
	<path fill="url(#SVGID_1_)" stroke="#212120" stroke-miterlimit="10" d="M58.099,28.9c0.022-2.916-2.371-6.017-2.431-8.934   c-0.062-2.918,1.665-5.3,1.665-5.3s-2.396,1.708-5.312,1.625s-5.999-2.5-8.916-2.5S35.99,17.29,35.99,17.29   s-4.172-3.367-7.089-3.389c-2.916-0.022-6.018,2.371-8.935,2.431c-2.918,0.062-5.3-1.665-5.3-1.665s1.708,2.396,1.625,5.312   s-2.5,5.999-2.5,8.916s3.498,7.114,3.498,7.114s-3.367,4.173-3.389,7.089c-0.022,2.916,2.371,6.018,2.431,8.936   c0.062,2.918-1.665,5.299-1.665,5.299s2.396-1.707,5.312-1.625c2.917,0.084,5.999,2.5,8.916,2.5s7.115-3.498,7.115-3.498   s4.171,3.367,7.088,3.389c2.916,0.023,6.018-2.371,8.935-2.43c2.918-0.062,5.3,1.664,5.3,1.664s-1.708-2.395-1.625-5.312   c0.083-2.916,2.5-5.998,2.5-8.916c0-2.916-3.498-7.115-3.498-7.115S58.077,31.818,58.099,28.9z"/>
	<radialGradient id="SVGID_2_" cx="36" cy="36" r="18.333" gradientUnits="userSpaceOnUse">
		<stop offset="0" style="stop-color:#FFFFFF;stop-opacity:0"/>
		<stop offset="0.1242" style="stop-color:#FDF9F7;stop-opacity:0.1242"/>
		<stop offset="0.2495" style="stop-color:#F9EAE2;stop-opacity:0.2495"/>
		<stop offset="0.3755" style="stop-color:#F2D4C3;stop-opacity:0.3755"/>
		<stop offset="0.502" style="stop-color:#E8B8A0;stop-opacity:0.502"/>
		<stop offset="0.6289" style="stop-color:#DE9A80;stop-opacity:0.6289"/>
		<stop offset="0.7561" style="stop-color:#D37B5F;stop-opacity:0.7561"/>
		<stop offset="0.8811" style="stop-color:#C8583F;stop-opacity:0.8811"/>
		<stop offset="1" style="stop-color:#BF2A1D"/>
	</radialGradient>
	<circle fill="url(#SVGID_2_)" stroke="#212120" stroke-miterlimit="10" cx="36" cy="36" r="18.333"/>
	<radialGradient id="SVGID_3_" cx="35.9585" cy="35.875" r="12.7917" gradientUnits="userSpaceOnUse">
		<stop offset="0" style="stop-color:#FFFFFF;stop-opacity:0"/>
		<stop offset="0.0515" style="stop-color:#F9ECE3;stop-opacity:0.0309"/>
		<stop offset="0.4075" style="stop-color:#DA8F74;stop-opacity:0.2445"/>
		<stop offset="0.6945" style="stop-color:#CA5C43;stop-opacity:0.4167"/>
		<stop offset="0.8982" style="stop-color:#C23B29;stop-opacity:0.5389"/>
		<stop offset="1" style="stop-color:#BF2A1D;stop-opacity:0.6"/>
	</radialGradient>
	<rect x="23.167" y="23.083" fill="url(#SVGID_3_)" stroke="#212120" stroke-miterlimit="10" width="25.583" height="25.584"/>
	<radialGradient id="SVGID_4_" cx="35.9072" cy="35.5303" r="9.6849" fx="35.9054" fy="35.5915" gradientUnits="userSpaceOnUse">
		<stop offset="0" style="stop-color:#FFFFFF;stop-opacity:0"/>
		<stop offset="0.0817" style="stop-color:#F9E9E0;stop-opacity:0.071"/>
		<stop offset="0.244" style="stop-color:#E9BBA4;stop-opacity:0.2119"/>
		<stop offset="0.4715" style="stop-color:#D68367;stop-opacity:0.4095"/>
		<stop offset="0.7529" style="stop-color:#C3402C;stop-opacity:0.654"/>
		<stop offset="0.8174" style="stop-color:#BF2A1D;stop-opacity:0.71"/>
	</radialGradient>
	<polygon fill="url(#SVGID_4_)" stroke="#212120" stroke-miterlimit="10" points="35.833,44.667 27.533,30.292 44.132,30.292  "/>
</g>
</svg>