<?xml version="1.0" encoding="UTF-8"?>
<!-- Generator: Adobe Illustrator 15.1.0, SVG Export Plug-In . SVG Version: 6.00 Build 0)  -->
<!DOCTYPE svg PUBLIC "-//W3C//DTD SVG 1.1//EN" "http://www.w3.org/Graphics/SVG/1.1/DTD/svg11.dtd">
<svg version="1.1" id="Layer_1" xmlns="http://www.w3.org/2000/svg" xmlns:xlink="http://www.w3.org/1999/xlink" x="0px" y="0px" width="72px" height="72px" viewBox="0 0 72 72" enable-background="new 0 0 72 72" xml:space="preserve">
<g>
	
		<radialGradient id="SVGID_1_" cx="159.7812" cy="-30.6587" r="34.8904" gradientTransform="matrix(0.7366 0 -0.0621 0.741 -83.5981 58.7175)" gradientUnits="userSpaceOnUse">
		<stop offset="0" style="stop-color:#FFFFFF;stop-opacity:0"/>
		<stop offset="0.0853" style="stop-color:#F2F9FE;stop-opacity:0.0853"/>
		<stop offset="0.2313" style="stop-color:#D3E9FA;stop-opacity:0.2313"/>
		<stop offset="0.4204" style="stop-color:#A9D4F4;stop-opacity:0.4204"/>
		<stop offset="0.6452" style="stop-color:#77BEED;stop-opacity:0.6452"/>
		<stop offset="0.8974" style="stop-color:#31A9E5;stop-opacity:0.8974"/>
		<stop offset="1" style="stop-color:#00A2E3"/>
	</radialGradient>
	<path fill="url(#SVGID_1_)" stroke="#212120" stroke-miterlimit="10" d="M17.589,23.666c0,0-1.692-1.06-2.864-0.691   c-1.174,0.359-2.039,1.377-3.197,1.771C10.37,25.142,9.094,24.8,9.094,24.8s1.133,0.679,1.648,1.786   c0.515,1.104,0.213,2.309,0.758,3.404c0.549,1.095,2.77,1.66,2.77,1.66s-1.969-0.332-2.91,0.457   c-0.947,0.781-1.357,2.053-2.276,2.86c-0.917,0.809-2.228,0.981-2.228,0.981s1.307,0.193,2.207,1.019   c0.898,0.824,1.08,2.051,2.003,2.855c0.926,0.802,3.194,0.475,3.194,0.475s-1.946,0.446-2.515,1.535   c-0.576,1.085-0.469,2.416-1.009,3.514c-0.537,1.098-1.682,1.76-1.682,1.76s1.281-0.322,2.429,0.097   c1.146,0.417,1.783,1.482,2.942,1.871c1.162,0.386,3.133-0.784,3.133-0.784s-1.627,1.157-1.735,2.381   c-0.117,1.223,0.492,2.412,0.413,3.632c-0.076,1.22-0.881,2.27-0.881,2.27s1.061-0.788,2.281-0.84   c1.218-0.054,2.215,0.688,3.435,0.603c1.221-0.088,2.595-1.924,2.595-1.924s-1.061,1.692-0.692,2.864   c0.359,1.175,1.378,2.04,1.771,3.197c0.396,1.156,0.056,2.434,0.056,2.434s0.678-1.134,1.786-1.648   c1.104-0.516,2.309-0.213,3.403-0.758c1.094-0.548,1.661-2.771,1.661-2.771s-0.332,1.969,0.456,2.911   c0.782,0.948,2.054,1.357,2.859,2.276c0.809,0.916,0.983,2.228,0.983,2.228s0.191-1.308,1.02-2.207   c0.822-0.899,2.051-1.08,2.854-2.003c0.801-0.924,0.475-3.193,0.475-3.193s0.447,1.944,1.535,2.514   c1.086,0.576,2.418,0.469,3.514,1.009c1.098,0.536,1.76,1.682,1.76,1.682s-0.322-1.281,0.098-2.429   c0.416-1.146,1.482-1.783,1.869-2.943c0.387-1.159-0.783-3.132-0.783-3.132s1.158,1.626,2.381,1.735   c1.225,0.117,2.412-0.492,3.633-0.412c1.219,0.074,2.27,0.88,2.27,0.88s-0.789-1.061-0.84-2.281   c-0.055-1.219,0.688-2.215,0.6-3.435c-0.086-1.219-1.921-2.594-1.921-2.594s1.692,1.059,2.862,0.692   c1.178-0.36,2.041-1.378,3.199-1.771c1.154-0.397,2.434-0.056,2.434-0.056s-1.135-0.678-1.648-1.786   c-0.518-1.104-0.213-2.31-0.76-3.402s-2.769-1.661-2.769-1.661s1.97,0.33,2.909-0.456c0.951-0.783,1.359-2.054,2.277-2.86   c0.916-0.809,2.229-0.983,2.229-0.983s-1.309-0.191-2.207-1.019c-0.9-0.822-1.08-2.052-2.004-2.853   c-0.924-0.8-3.193-0.475-3.193-0.475s1.945-0.449,2.514-1.534c0.578-1.088,0.469-2.418,1.008-3.515   c0.537-1.099,1.684-1.761,1.684-1.761s-1.283,0.324-2.43-0.097c-1.146-0.415-1.783-1.482-2.943-1.869   c-1.158-0.385-3.131,0.784-3.131,0.784s1.625-1.159,1.734-2.379c0.117-1.227-0.492-2.413-0.414-3.633   c0.076-1.22,0.883-2.271,0.883-2.271s-1.062,0.79-2.283,0.84c-1.217,0.055-2.215-0.687-3.434-0.601   c-1.217,0.088-2.593,1.923-2.593,1.923s1.058-1.692,0.692-2.862c-0.361-1.178-1.379-2.041-1.773-3.198   c-0.396-1.156-0.055-2.436-0.055-2.436s-0.678,1.136-1.787,1.65c-1.104,0.516-2.309,0.212-3.402,0.758   c-1.09,0.547-1.66,2.768-1.66,2.768s0.332-1.967-0.457-2.91c-0.781-0.946-2.053-1.356-2.859-2.275   c-0.81-0.918-0.982-2.229-0.982-2.229s-0.193,1.307-1.019,2.207c-0.823,0.898-2.052,1.08-2.854,2.004   c-0.803,0.926-0.476,3.193-0.476,3.193s-0.446-1.945-1.536-2.514c-1.084-0.575-2.415-0.467-3.513-1.008   c-1.099-0.539-1.76-1.683-1.76-1.683s0.321,1.281-0.097,2.429c-0.417,1.145-1.482,1.783-1.871,2.943   c-0.387,1.163,0.784,3.132,0.784,3.132s-1.157-1.626-2.382-1.735c-1.222-0.117-2.41,0.492-3.631,0.413   c-1.221-0.077-2.27-0.881-2.27-0.881s0.787,1.061,0.84,2.281c0.053,1.218-0.688,2.215-0.603,3.436   C15.753,22.294,17.589,23.666,17.589,23.666z"/>
	<radialGradient id="SVGID_2_" cx="36.0005" cy="36" r="21.7629" gradientUnits="userSpaceOnUse">
		<stop offset="0" style="stop-color:#FFFFFF;stop-opacity:0"/>
		<stop offset="0.0852" style="stop-color:#F4FAFE;stop-opacity:0.0852"/>
		<stop offset="0.22" style="stop-color:#DAEDFB;stop-opacity:0.22"/>
		<stop offset="0.3875" style="stop-color:#B5DAF6;stop-opacity:0.3875"/>
		<stop offset="0.5812" style="stop-color:#89C6EF;stop-opacity:0.5812"/>
		<stop offset="0.7939" style="stop-color:#55B2E8;stop-opacity:0.7939"/>
		<stop offset="1" style="stop-color:#00A2E3"/>
	</radialGradient>
	<circle fill="url(#SVGID_2_)" stroke="#212120" stroke-miterlimit="10" cx="36" cy="35.999" r="21.763"/>
	<radialGradient id="SVGID_3_" cx="36.1001" cy="36.022" r="17.7081" gradientUnits="userSpaceOnUse">
		<stop offset="0" style="stop-color:#FFFFFF;stop-opacity:0"/>
		<stop offset="1" style="stop-color:#00A2E3"/>
	</radialGradient>
	<polygon fill="url(#SVGID_3_)" stroke="#212120" stroke-linejoin="bevel" stroke-miterlimit="10" points="35.88,57.93    16.951,25.14 54.813,25.142  "/>
	<radialGradient id="SVGID_4_" cx="36.0005" cy="36" r="10.2288" gradientUnits="userSpaceOnUse">
		<stop offset="0" style="stop-color:#FFFFFF;stop-opacity:0"/>
		<stop offset="0.0852" style="stop-color:#F4FAFE;stop-opacity:0.0852"/>
		<stop offset="0.22" style="stop-color:#DAEDFB;stop-opacity:0.22"/>
		<stop offset="0.3875" style="stop-color:#B5DAF6;stop-opacity:0.3875"/>
		<stop offset="0.5812" style="stop-color:#89C6EF;stop-opacity:0.5812"/>
		<stop offset="0.7939" style="stop-color:#55B2E8;stop-opacity:0.7939"/>
		<stop offset="1" style="stop-color:#00A2E3"/>
	</radialGradient>
	<circle fill="url(#SVGID_4_)" stroke="#212120" stroke-miterlimit="10" cx="36" cy="35.999" r="10.229"/>
</g>
</svg>